#!OML:ASF H:\LiuWeirdWalks\Patient Classification 1\Patient 1\Session 1\male.ASF
:FULLY-SPECIFIED
:DEGREES
4553
root 1.68857 18.0203 28.6909 542.995 354.867 179.837
lowerback 2.4208 0.0606206 2.99629
upperback -0.274454 0.161307 -0.480436
thorax -1.62958 0.0511094 -2.17967
lowerneck -11.3915 4.38985 0.688822
upperneck 14.3731 6.03629 -2.3653
head 6.33537 2.67999 -0.343259
rclavicle 7.44821e-015 1.98785e-016
rhumerus -23.0471 10.5661 -84.8896
rradius 37.6148
rwrist -20.6833
rhand -18.4448 -5.69613
rfingers 7.12502
rthumb 7.84103 -35.5307
lclavicle 7.44821e-015 1.98785e-016
lhumerus -54.8952 31.8288 59.6933
lradius 26.8829
lwrist 9.30985
lhand -14.1261 4.52461
lfingers 7.12502
lthumb 12.0075 34.1602
rfemur -5.20627 -12.482 16.3775
rtibia 59.9101
rfoot 2.21833 -24.4475
rtoes 5.76161
lfemur -16.4045 -1.80932 -22.3787
ltibia 27.8361
lfoot -8.52081 15.7075
ltoes -6.69525
4554
root 1.66528 18.0209 28.5749 542.929 355.363 179.543
lowerback 2.80515 -0.603236 3.1366
upperback -0.399046 -0.70738 -0.619096
thorax -2.02918 -0.392712 -2.36336
lowerneck -11.5515 4.8226 0.549572
upperneck 14.3722 6.62228 -2.17175
head 6.36 2.97037 -0.20331
rclavicle -2.08103e-015 1.98785e-015
rhumerus -24.0323 11.7553 -85.9493
rradius 37.5497
rwrist -20.403
rhand -18.3379 -5.88406
rfingers 7.12502
rthumb 7.94423 -35.7148
lclavicle -2.08103e-015 1.98785e-015
lhumerus -54.1047 32.0345 60.0174
lradius 26.9328
lwrist 9.19994
lhand -14.4285 4.59786
lfingers 7.12502
lthumb 11.716 34.2502
rfemur -6.63579 -12.3192 15.9288
rtibia 61.1227
rfoot 0.823277 -24.2565
rtoes 5.13045
lfemur -15.648 -1.64139 -22.7834
ltibia 27.5116
lfoot -8.80547 16.1655
ltoes -6.71187
4555
root 1.64345 18.0187 28.4604 542.85 355.849 179.248
lowerback 3.00223 -1.02844 2.96749
upperback -0.464855 -1.27407 -0.649641
thorax -2.24102 -0.677856 -2.26879
lowerneck -11.8169 4.98149 0.470526
upperneck 14.6483 6.83533 -2.04775
head 6.48922 3.0684 -0.122
rclavicle 4.21796e-015 -9.93923e-016
rhumerus -25.0993 12.2967 -86.5399
rradius 37.508
rwrist -20.0785
rhand -18.2123 -6.04614
rfingers 7.12502
rthumb 8.06547 -35.8722
lclavicle 4.21796e-015 -9.93923e-016
lhumerus -52.9154 31.8333 60.8369
lradius 26.9128
lwrist 9.01059
lhand -14.7307 4.65496
lfingers 7.12502
lthumb 11.4245 34.3237
rfemur -8.06405 -12.111 15.5108
rtibia 62.1898
rfoot -0.566105 -23.9258
rtoes 4.3364
lfemur -14.9136 -1.46395 -23.188
ltibia 27.2288
lfoot -9.1166 16.6047
ltoes -6.75241
4556
root 1.62286 18.0133 28.3475 542.763 356.316 178.948
lowerback 3.16006 -1.42366 2.72065
upperback -0.497914 -1.80586 -0.651143
thorax -2.38878 -0.942483 -2.09952
lowerneck -12.0757 4.79295 0.48829
upperneck 14.8919 7.0584 -2.03841
head 6.61576 3.37053 -0.0676923
rclavicle -3.4924e-014 -6.85807e-015
rhumerus -26.1238 12.6811 -86.986
rradius 37.423
rwrist -19.6942
rhand -18.0888 -6.12068
rfingers 7.12502
rthumb 8.18462 -35.9422
lclavicle -3.4924e-014 -6.85807e-015
lhumerus -51.6243 31.5386 61.7418
lradius 26.9207
lwrist 8.89998
lhand -15.0475 4.76514
lfingers 7.12502
lthumb 11.1189 34.4506
rfemur -9.48883 -11.8729 15.1146
rtibia 63.1154
rfoot -1.94615 -23.5177
rtoes 3.53043
lfemur -14.2068 -1.29445 -23.5977
ltibia 26.99
lfoot -9.44915 17.0335
ltoes -6.80316
4557
root 1.6037 18.0049 28.2362 542.665 356.751 178.644
lowerback 3.33048 -1.82853 2.49975
upperback -0.547594 -2.35103 -0.68791
thorax -2.55947 -1.21436 -1.97641
lowerneck -12.3759 4.87353 0.479769
upperneck 15.2869 7.17214 -1.9232
head 6.79112 3.42756 -0.00397877
rclavicle -4.09621e-014 -5.36719e-015
rhumerus -27.1683 12.938 -87.4237
rradius 37.2771
rwrist -19.2381
rhand -17.973 -6.15905
rfingers 7.12502
rthumb 8.29635 -35.9761
lclavicle -4.09621e-014 -5.36719e-015
lhumerus -50.3529 31.0925 62.5746
lradius 26.9887
lwrist 8.92726
lhand -15.3576 4.90077
lfingers 7.12502
lthumb 10.8198 34.6021
rfemur -10.904 -11.6179 14.7425
rtibia 63.9015
rfoot -3.33548 -23.0907
rtoes 2.67616
lfemur -13.5267 -1.14769 -24.0095
ltibia 26.8001
lfoot -9.79233 17.4535
ltoes -6.87435
4558
root 1.58639 17.9939 28.1264 542.564 357.161 178.331
lowerback 3.37561 -2.12676 2.13415
upperback -0.594183 -2.76393 -0.710045
thorax -2.63853 -1.41648 -1.7672
lowerneck -12.8025 4.74819 0.467968
upperneck 16.0898 7.02946 -1.74367
head 7.11574 3.36756 0.0675222
rclavicle 4.44159e-015 -4.57205e-015
rhumerus -28.274 12.8162 -87.6576
rradius 37.068
rwrist -18.6838
rhand -17.8225 -6.07808
rfingers 7.12502
rthumb 8.44161 -35.8894
lclavicle 4.44159e-015 -4.57205e-015
lhumerus -48.9934 30.314 63.5376
lradius 27.0784
lwrist 8.99936
lhand -15.6483 5.04774
lfingers 7.12502
lthumb 10.5395 34.7635
rfemur -12.3162 -11.3492 14.3935
rtibia 64.5518
rfoot -4.70641 -22.6965
rtoes 1.80207
lfemur -12.8805 -1.0053 -24.4264
ltibia 26.6578
lfoot -10.1389 17.8564
ltoes -6.96638
4559
root 1.57064 17.9803 28.018 542.459 357.568 178.025
lowerback 3.66314 -2.60418 2.02572
upperback -0.742199 -3.40409 -0.839359
thorax -2.98507 -1.73993 -1.78209
lowerneck -13.3565 4.78159 0.372025
upperneck 17.0326 7.0936 -1.38006
head 7.50339 3.41738 0.239379
rclavicle -3.74026e-014 -3.8763e-015
rhumerus -29.3851 12.974 -88.1784
rradius 36.7314
rwrist -18.0301
rhand -17.6255 -5.92572
rfingers 7.12502
rthumb 8.63176 -35.7293
lclavicle -3.74026e-014 -3.8763e-015
lhumerus -48.0081 29.6223 64.0038
lradius 27.32
lwrist 9.31593
lhand -15.8948 5.20144
lfingers 7.12502
lthumb 10.3016 34.9291
rfemur -13.7313 -11.0557 14.0791
rtibia 65.0695
rfoot -6.02463 -22.3542
rtoes 0.955583
lfemur -12.2684 -0.857289 -24.8354
ltibia 26.5633
lfoot -10.4839 18.2552
ltoes -7.06954
4560
root 1.55669 17.9647 27.9106 542.353 357.935 177.711
lowerback 3.92133 -2.93851 1.69213
upperback -0.912884 -3.86585 -0.909046
thorax -3.31116 -1.96895 -1.61703
lowerneck -13.8449 4.65156 0.432718
upperneck 18.1017 6.94252 -1.15076
head 7.93486 3.36868 0.32319
rclavicle 6.54188e-014 -1.2921e-015
rhumerus -30.5577 12.6867 -88.369
rradius 36.3485
rwrist -17.3399
rhand -17.3884 -5.76233
rfingers 7.12502
rthumb 8.86059 -35.5563
lclavicle 6.54188e-014 -1.2921e-015
lhumerus -46.9392 28.5839 64.67
lradius 27.5578
lwrist 9.6436
lhand -16.0952 5.3071
lfingers 7.12502
lthumb 10.1083 35.0443
rfemur -15.1351 -10.7772 13.7839
rtibia 65.4546
rfoot -7.28803 -22.0769
rtoes 0.140747
lfemur -11.6871 -0.714 -25.2486
ltibia 26.5104
lfoot -10.8208 18.6312
ltoes -7.1967
4561
root 1.54465 17.9475 27.804 542.252 358.273 177.406
lowerback 3.85672 -2.92098 0.77814
upperback -1.02375 -3.88597 -0.765003
thorax -3.3181 -1.96029 -0.959844
lowerneck -14.2733 4.1184 0.659867
upperneck 19.4758 6.29094 -1.17536
head 8.4758 3.0828 0.24458
rclavicle 2.596e-014 -2.78299e-015
rhumerus -31.7983 11.5729 -87.7831
rradius 35.9682
rwrist -16.5677
rhand -17.079 -5.49731
rfingers 7.12502
rthumb 9.15907 -35.2784
lclavicle 2.596e-014 -2.78299e-015
lhumerus -45.5307 26.9546 66.0218
lradius 27.7089
lwrist 9.85824
lhand -16.2672 5.33834
lfingers 7.12502
lthumb 9.94235 35.0836
rfemur -16.5364 -10.5053 13.5281
rtibia 65.7077
rfoot -8.46831 -21.8709
rtoes -0.680129
lfemur -11.1384 -0.576196 -25.6474
ltibia 26.4936
lfoot -11.1546 18.9895
ltoes -7.30346
4562
root 1.53411 17.929 27.6976 542.152 358.554 177.105
lowerback 4.17043 -3.35096 0.364251
upperback -1.26131 -4.48491 -0.762396
thorax -3.72327 -2.25099 -0.656974
lowerneck -14.6172 4.09766 0.781822
upperneck 20.5187 6.30795 -1.06298
head 8.89389 3.11916 0.293718
rclavicle -3.67752e-015 -2.78299e-015
rhumerus -32.9342 11.4106 -87.8027
rradius 35.4552
rwrist -15.6956
rhand -16.7367 -5.27338
rfingers 7.12502
rthumb 9.48937 -35.0397
lclavicle -3.67752e-015 -2.78299e-015
lhumerus -44.8344 25.9738 66.4122
lradius 28.0725
lwrist 10.3583
lhand -16.3728 5.2904
lfingers 7.12502
lthumb 9.84045 35.0405
rfemur -17.9165 -10.27 13.2991
rtibia 65.8266
rfoot -9.54177 -21.733
rtoes -1.4259
lfemur -10.6084 -0.455778 -26.0359
ltibia 26.4993
lfoot -11.4867 19.3101
ltoes -7.39423
